<svg width="772" height="198" viewBox="0 0 772 198" fill="none" xmlns="http://www.w3.org/2000/svg">
<mask id="mask0_527_15" style="mask-type:alpha" maskUnits="userSpaceOnUse" x="18" y="18" width="736" height="161">
<rect x="18" y="18" width="736" height="161" fill="#D9D9D9"/>
</mask>
<g mask="url(#mask0_527_15)">
<path fill-rule="evenodd" clip-rule="evenodd" d="M0 99V198H386H772V99V0H386H0V99ZM766 98.5V191H386H6V98.5V6H386H766V98.5ZM21 99V175H386H751V99V23H386H21V99ZM86 88V123H108.5H131V134V145H97H63V99V53H74.5H86V88ZM234.132 97.5C243.955 121.7 252.253 142.302 252.573 143.281C253.113 144.935 252.272 145.043 240.876 144.781L228.597 144.5L217.016 113.8C210.646 96.915 205.189 82.855 204.889 82.556C204.59 82.256 199.039 96.184 192.553 113.506L180.762 145H168.464H156.167L173.674 101.75C183.303 77.962 191.639 57.249 192.199 55.719L193.217 52.938L204.745 53.219L216.273 53.5L234.132 97.5ZM315.067 81.989C322.224 97.659 328.413 110.813 328.822 111.222C329.231 111.631 335.622 98.698 343.025 82.482L356.485 53H368.243H380V99V145H368.519H357.038L356.769 122.75L356.5 100.5L346.589 120.75L336.679 141L329.089 140.976L321.5 140.953L312 120.966L302.5 100.98L302.231 122.99L301.962 145H290.481H279V98.968V52.937L290.528 53.218L302.056 53.5L315.067 81.989ZM465.488 55.799C472.047 58.822 474.767 61.445 477.623 67.5C482.122 77.042 480.351 87.213 473.01 93.991L469.062 97.635L474.234 101.068C481.071 105.605 484.008 111.133 483.978 119.407C483.94 129.862 478.774 137.47 468.5 142.199C463.701 144.408 462.325 144.512 434.25 144.806L405 145.111V98.998V52.884L432.75 53.192C459.247 53.486 460.725 53.604 465.488 55.799ZM569.285 55.863C576.32 58.668 585.559 66.925 589.209 73.671C597.158 88.357 597.404 108.487 589.815 123.362C584.84 133.115 573.619 141.45 562.201 143.875C559.117 144.53 546.889 145 532.951 145H509V98.928V52.857L536.25 53.207C561.923 53.537 563.835 53.69 569.285 55.863ZM689.58 98.95C699.711 123.948 708 144.535 708 144.7C708 144.865 702.487 144.992 695.75 144.983L683.5 144.965L672.581 115.733C666.576 99.655 661.136 85.436 660.493 84.136C659.442 82.008 658.136 84.946 647.488 113.386L635.651 145H623.35H611.05L611.935 142.75C612.421 141.512 620.563 121.375 630.027 98C639.491 74.625 647.46 54.924 647.736 54.219C648.112 53.259 651.101 53.009 659.699 53.219L671.161 53.5L689.58 98.95ZM427 81.5V89H440C451.667 89 453.205 88.795 455 87C457.414 84.586 457.63 79.344 455.443 76.223C453.966 74.113 453.202 74 440.443 74H427V81.5ZM532 99V123.196L545.416 122.848C558.453 122.51 558.951 122.415 563.089 119.5C565.431 117.85 568.425 114.475 569.743 112C571.884 107.98 572.105 106.468 571.82 97.833C571.526 88.956 571.254 87.816 568.486 83.881C563.392 76.638 560.503 75.553 545.25 75.152L532 74.804V99ZM427 115.5V124H442C455.667 124 457.178 123.822 459 122C462.123 118.877 461.773 111.753 458.365 109.073C455.977 107.194 454.384 107 441.365 107H427V115.5Z" fill="url(#paint0_linear_527_15)"/>
</g>
<rect x="3" y="3" width="766" height="192" stroke="url(#paint1_linear_527_15)" stroke-width="6"/>
<defs>
<linearGradient id="paint0_linear_527_15" x1="0" y1="99" x2="772" y2="99" gradientUnits="userSpaceOnUse">
<stop stop-color="#FF8B1D"/>
<stop offset="0.505" stop-color="#FF802E"/>
<stop offset="1" stop-color="#FF7847"/>
</linearGradient>
<linearGradient id="paint1_linear_527_15" x1="0" y1="99" x2="772" y2="99" gradientUnits="userSpaceOnUse">
<stop stop-color="#FF4811"/>
<stop offset="1" stop-color="#FFAC4C"/>
</linearGradient>
</defs>
</svg>
